# xmcd
# Copyright (C) 1995-1998 Ti Kan
#
# Track frame offsets:
#       150
#       139914
#       157734
#       192147
#
# Disc length: 2948 seconds
#
# Revision: 0
# Processed by: cddbd v1.5.2PL0 Copyright (c) Steve Scherf et al.
# Submitted via: CD-Import v1.0
#
DISCID=2a0b8204
DTITLE=T. Kordzania - D. Blum - Konzert Radiostudis Zürich 27.1.07
DYEAR=2007
DGENRE=
TTITLE0=Konzert Radiostudis Zürich 1
TTITLE1=Konzert Radiostudis Zürich 2
TTITLE2=Konzert Radiostudis Zürich 3
TTITLE3=Konzert Radiostudis Zürich 4
EXTD=
EXTT0=
EXTT1=
EXTT2=
EXTT3=
PLAYORDER=
